PathFileType        4      (X/Y/Z)      C:\Users\pc\Desktop\IMUTRC\Sujet_02\Sujet_02_velo_80.trc         
DataRate	CameraRate	NumFrames	NumMarkers	Units	OrigDataRate	OrigDataStartFrame	OrigNumFrames
60.0	60.0	4	64	mm	60.0	355	945
Frame#	Time	pHipOrigin			pRightASI			pLeftASI			pRightCSI			pLeftCSI			pRightIschialTub			pLeftIschialTub			pSacrum			pL5SpinalProcess			pL3SpinalProcess			pT12SpinalProcess			pIJ			pT4SpinalProcess			pT8SpinalProcess			pPX			pC7SpinalProcess			pTopOfHead			pRightAuricularis			pLeftAuricularis			pBackOfHead			pRightAcromion			pLeftAcromion			pRightArmLatEpicondyle			pRightArmMedEpicondyle			pLeftArmLatEpicondyle			pLeftArmMedEpicondyle			pRightUlnarStyloid			pRightRadialStyloid			pRightOlecranon			pLeftUlnarStyloid			pLeftRadialStyloid			pLeftOlecranon			pRightTopOfHand			pRightPinky			pRightBallHand			pLeftTopOfHand			pLeftPinky			pLeftBallHand			pRightGreaterTrochanter			pRightKneeLatEpicondyle			pRightKneeMedEpicondyle			pRightPatella			pLeftGreaterTrochanter			pLeftKneeLatEpicondyle			pLeftKneeMedEpicondyle			pLeftPatella			pRightTibialTub			pRightLatMalleolus			pRightMedMalleolus			pLeftTibialTub			pLeftLatMalleolus			pLeftMedMalleolus			pRightHeelFoot			pRightFirstMetatarsal			pRightFifthMetatarsal			pRightPivotFoot			pRightHeelCenter			pRightToe			pLeftHeelFoot			pLeftFirstMetatarsal			pLeftFifthMetatarsal			pLeftPivotFoot			pLeftHeelCenter			pLeftToe			
		X1	Y1	Z1	X2	Y2	Z2	X3	Y3	Z3	X4	Y4	Z4	X5	Y5	Z5	X6	Y6	Z6	X7	Y7	Z7	X8	Y8	Z8	X9	Y9	Z9	X10	Y10	Z10	X11	Y11	Z11	X12	Y12	Z12	X13	Y13	Z13	X14	Y14	Z14	X15	Y15	Z15	X16	Y16	Z16	X17	Y17	Z17	X18	Y18	Z18	X19	Y19	Z19	X20	Y20	Z20	X21	Y21	Z21	X22	Y22	Z22	X23	Y23	Z23	X24	Y24	Z24	X25	Y25	Z25	X26	Y26	Z26	X27	Y27	Z27	X28	Y28	Z28	X29	Y29	Z29	X30	Y30	Z30	X31	Y31	Z31	X32	Y32	Z32	X33	Y33	Z33	X34	Y34	Z34	X35	Y35	Z35	X36	Y36	Z36	X37	Y37	Z37	X38	Y38	Z38	X39	Y39	Z39	X40	Y40	Z40	X41	Y41	Z41	X42	Y42	Z42	X43	Y43	Z43	X44	Y44	Z44	X45	Y45	Z45	X46	Y46	Z46	X47	Y47	Z47	X48	Y48	Z48	X49	Y49	Z49	X50	Y50	Z50	X51	Y51	Z51	X52	Y52	Z52	X53	Y53	Z53	X54	Y54	Z54	X55	Y55	Z55	X56	Y56	Z56	X57	Y57	Z57	X58	Y58	Z58	X59	Y59	Z59	X60	Y60	Z60	X61	Y61	Z61	X62	Y62	Z62	X63	Y63	Z63	X64	Y64	Z64	
355	5.9	0.0	1250.02096	7.654170837655508E-14	59.683600000000006	1368.42734	139.54432000000008	39.56298999999999	1365.54489	-148.8133599999999	-1.978149999999993	1428.95871	117.10645000000008	-18.538090000000008	1426.58493	-119.19763999999992	-42.44543999999999	1180.05098	63.01819000000007	-50.69715	1178.86409	-55.10558999999993	-73.86976	1258.6683	5.0866700000000815	-51.82752	1375.54867	3.0520000000000875	-4.35193	1488.19016	5.651860000000092	50.8667	1585.74119	9.947270000000094	314.75185	1611.79625	2.8259300000000795	201.54518	1721.2727	18.594610000000095	123.83216	1668.42784	14.977420000000096	211.662	1535.32664	-2.7128899999999185	255.06825	1752.3579	21.47705000000009	494.14176	1756.54028	35.49365000000008	403.14688	1727.77233	87.94288000000007	413.48977	1756.65331	-37.69787999999992	399.07754	1791.07312	35.55017000000009	225.33949	1701.4912	219.34853000000012	238.11269	1727.43322	-186.5112399999999	284.96657	1420.707	292.2009500000001	248.62514000000002	1395.1041	245.06447000000006	323.45571	1443.42746	-181.76367999999994	285.19265	1428.05442	-131.74475999999996	379.12649	1156.31319	351.94106000000005	418.29385	1167.22127	309.77822000000003	245.29054000000002	1410.25107	289.7706500000001	448.41824	1197.4587	-231.89564999999993	486.62479	1215.71419	-191.42835999999994	282.53627	1433.70627	-177.69434999999993	559.36417	1065.88349	314.52578	479.10782	1083.51728	353.5801	417.61563	1126.75398	336.90713000000005	637.02067	1153.71333	-149.26550999999998	565.58121	1147.49629	-205.27539999999996	494.36783	1176.65987	-207.81873999999993	17.97290000000001	1230.69161	178.65516000000008	292.14443	876.26373	194.93251000000004	303.56118	872.70306	109.19385000000004	334.25075	906.67071	152.65663000000004	25.94201999999999	1227.80916	-173.7945699999999	442.99246	1071.13972	-123.09741999999996	443.61416	1081.53913	-37.13268999999996	457.68729	1122.62813	-82.91272999999995	336.62453	821.27117	153.61744000000002	100.49	464.86514	90.26014000000004	118.97157	470.79959	24.64209000000002	487.64212	1032.59406	-83.25183999999997	306.04799	645.3289	-145.64833	307.51748	639.73356	-77.43042999999997	13.90357	395.74295	10.512450000000024	167.63404	291.7488	21.646610000000006	132.98817	285.30568	102.18555	169.66871	273.83242	67.76575	46.06263	369.4053	22.21179000000002	233.93031	225.0569	91.50355	207.98829	562.13358	-92.97302999999998	365.95767	464.1304	-93.1991	345.44143	469.6127	-178.48561	376.4136	453.67447	-140.44862	242.74721	538.56534	-102.86377999999999	445.87491	410.43777	-159.94752	
356	5.917	0.0	1250.02096	7.654170837655508E-14	60.07923000000001	1368.54037	139.26173000000009	39.90209999999999	1365.09274	-149.0959599999999	-1.4129599999999929	1429.24131	116.71082000000008	-17.972900000000006	1426.35886	-119.59326999999992	-42.61498999999999	1180.33357	63.18775000000007	-50.92322	1178.92061	-54.93603999999993	-73.86976	1258.89437	5.0866700000000815	-51.48841	1375.60519	2.7694100000000876	-3.8997799999999994	1488.19016	5.369260000000091	51.31885	1585.74119	9.777710000000095	315.26052	1612.02232	2.9954800000000796	201.94081	1721.32922	18.820680000000095	124.28431	1668.42784	15.033940000000095	212.28371	1535.43968	-2.825929999999919	255.46388	1752.47094	21.87268000000009	494.5939	1756.42724	35.66321000000008	403.59903	1727.65929	88.22547000000007	413.77237	1756.82287	-37.41528999999992	399.52969	1791.07312	36.00232000000008	226.01772	1701.20861	219.4615600000001	239.24306	1727.88537	-186.2851699999999	285.81435	1420.65048	292.4835400000001	249.52944000000002	1394.99106	245.34706000000006	325.09475	1444.04917	-181.14197999999993	286.71865	1428.6196	-131.23608999999993	380.42642	1156.25667	351.77151000000003	419.48074	1167.27779	309.55214000000007	246.25136000000003	1410.13803	290.1097600000001	449.37906	1198.02388	-232.34778999999995	487.69864	1215.99678	-191.93701999999993	284.06227	1434.44101	-177.18567999999993	560.77714	1066.16609	314.13015	480.52078	1083.63032	353.29751	418.91555	1126.8105	336.6810500000001	637.92497	1153.76985	-149.83069999999998	566.48551	1147.72237	-205.84058999999996	495.32865	1177.0555	-208.32740999999993	19.15979000000001	1233.06539	178.99427000000009	304.74807	888.07611	200.86696000000003	315.76919	883.10248	115.12830000000004	345.55447	918.93524	157.68678000000003	24.24645999999999	1225.26583	-173.8510899999999	434.74075	1051.47126	-125.13208999999996	436.66238	1062.88801	-39.336919999999964	451.97891	1102.79011	-85.79516999999996	346.34573	831.33148	158.47804000000002	95.57288	486.51175	87.20814000000003	114.78919	492.89835	21.81616000000002	481.93375	1014.84723	-85.68212999999997	313.73452	620.9694	-144.23536	316.16482	615.76969	-76.01745999999997	6.78223	421.68496	7.008300000000026	156.61293	311.98244	17.012090000000008	121.79749	306.04799	97.49451	158.02589	293.61391	62.96167000000001	37.98047	394.04739	18.42505000000002	220.42238	242.29506	86.1908	220.08327	533.42215	-91.61657999999998	382.57412	443.04898	-91.72962	361.83181	447.45743	-177.07264	393.53872	433.04519	-138.97914	255.97255	511.49295	-101.45080999999999	464.92166	393.14309	-158.42152	
357	5.933	0.0	1250.02096	7.654170837655508E-14	60.30530000000001	1368.65341	139.0921700000001	40.35424999999999	1364.64059	-149.26550999999992	-0.9608199999999929	1429.46738	116.37171000000008	-17.351200000000006	1426.1893	-119.98889999999992	-42.897589999999994	1180.55965	63.30079000000007	-51.09278	1178.97713	-54.87951999999993	-73.81324	1259.12044	4.973630000000082	-51.09278	1375.71823	2.5433400000000876	-3.5041499999999997	1488.24668	5.199710000000091	51.65796	1585.74119	9.834230000000094	315.59963	1612.53099	3.617190000000079	201.99733	1721.55529	19.498900000000095	124.45387	1668.54088	15.316530000000096	212.79237	1535.77879	-2.6563699999999186	255.46388	1752.86657	22.72046000000009	494.65042	1756.65331	36.34143000000008	403.76858	1727.88537	89.01673000000007	413.71585	1757.33154	-36.56750999999992	399.64273	1791.41223	36.96314000000009	226.41335	1700.98253	220.0267500000001	240.26039	1728.67663	-185.6634599999999	286.54909	1420.707	293.0487300000001	250.37721000000002	1394.93454	245.85573000000005	326.73379	1445.00998	-180.40723999999994	288.35769	1429.5239	-130.55786999999995	381.66982	1156.25667	351.71499000000006	420.61111	1167.39082	309.4391100000001	247.04262000000003	1410.08151	290.67495000000014	450.28335	1198.87166	-232.91297999999995	488.71597	1216.61849	-192.44568999999996	285.70131	1435.45835	-176.39441999999994	562.13358	1066.61823	313.79104	481.93375	1083.85639	353.07143	420.21548	1126.92354	336.56802000000005	638.77275	1154.16548	-150.39587999999998	567.33329	1148.28755	-206.40577999999996	496.23294	1177.73372	-208.89258999999996	20.233640000000012	1235.60872	179.3333900000001	318.36904	901.86664	206.97096000000002	329.16408	895.367	121.28883000000005	357.87551	933.23444	162.88649000000004	22.324829999999988	1222.66597	-173.90759999999992	424.11526	1029.14643	-127.27978999999998	427.56289	1041.41096	-41.59765999999996	444.34891	1080.01313	-88.67761999999996	357.31033	843.31341	163.50819000000004	92.97303	510.30606	85.45606000000002	112.69801	516.97525	20.233640000000026	474.24722	994.10492	-88.39502999999998	318.87771	594.4622	-142.70936	322.38186	589.65812	-74.49145999999998	2.1477100000000005	449.71817	4.860600000000027	147.96559	334.75942	13.677490000000013	113.09364	329.27712	94.15992000000001	148.75685	315.88222	59.45752000000002	32.32862	420.95022	15.994750000000025	209.40126	262.18959	82.12147	229.69142	502.95865	-90.14709999999998	396.08206	419.98941	-90.31666	375.17019	423.49356	-175.60316	407.44229	410.49429	-137.50965	266.485	482.72501	-100.03784999999999	480.5773	373.87026	-156.95204	
358	5.95	0.0	1250.02096	7.654170837655508E-14	60.47486000000001	1368.65341	139.0356500000001	40.97594999999999	1364.358	-149.32202999999993	-0.6216999999999929	1429.63694	116.08912000000008	-16.616460000000007	1426.07627	-120.21496999999991	-43.23669999999999	1180.78572	63.30079000000007	-51.20581	1179.03365	-54.82299999999993	-73.81324	1259.34652	4.8606000000000815	-50.75367	1375.77475	2.3172600000000876	-3.0519999999999996	1488.24668	5.143190000000091	52.05359	1585.74119	10.060300000000094	315.93874	1613.03966	4.634520000000079	202.11036	1721.78136	20.516240000000096	124.67994	1668.5974	15.938230000000097	213.35756	1536.06138	-2.2042199999999186	255.5204	1753.14916	24.02039000000009	494.76346	1756.87939	37.47180000000008	403.93814	1728.11144	90.26014000000008	413.71585	1757.78369	-35.267579999999924	399.81228	1791.75134	38.31958000000009	226.63942	1700.69994	220.9310400000001	241.5038	1729.46789	-184.6461299999999	287.1708	1420.48093	293.6139100000001	251.11196000000004	1394.76498	246.30788000000007	328.54238	1445.9708	-179.61597999999995	290.05324	1430.31516	-129.87964999999994	382.85671	1156.08711	351.54543000000007	421.74148	1167.39082	309.26955000000004	247.77736000000002	1409.85544	291.1836100000001	451.13113	1199.6064	-233.47815999999995	489.67679	1217.07064	-193.01087999999993	287.39687	1436.5322	-175.65967999999995	563.54655	1066.90083	313.45192	483.29019	1083.96943	352.78884	421.45889	1126.86702	336.3419400000001	639.62053	1154.56111	-150.96106999999998	568.18107	1148.79622	-207.02747999999997	497.08072	1178.29891	-209.45777999999996	20.91187000000001	1237.86947	179.6159800000001	332.10305	916.78754	212.67934000000002	342.95461	909.15753	127.11024000000005	370.19656	948.89008	167.91664000000003	20.34667999999999	1220.29219	-173.90759999999992	411.56814	1005.86078	-129.20141999999998	416.54178	1018.74702	-43.74535999999996	434.91031	1055.87971	-91.33398999999996	368.72708	856.93438	168.48182000000003	93.36866	534.43949	85.06043000000003	113.43275	541.33475	20.007570000000026	464.29996	972.28876	-90.76879999999997	320.6863	567.78544	-141.46595	325.03823	563.49003	-73.30456999999998	0.5086700000000002	477.46878	4.06934000000003	142.76588	357.93203	11.077640000000013	107.89393	352.6758	91.61658000000003	143.04847	338.54616	56.63160000000001	29.78528	447.62698	14.751340000000026	202.05385	282.70583	78.50428	235.34328	473.00382	-88.90368999999998	404.84243	396.47769	-89.01673	383.81753	399.2471	-174.35975	416.59829	387.49124	-136.26624	272.92812	454.18314	-98.73791999999999	491.08975	353.69314	-155.70863	
